<svg width="20" height="21" viewBox="0 0 20 21" fill="none" xmlns="http://www.w3.org/2000/svg">
<path fill-rule="evenodd" clip-rule="evenodd" d="M1.66634 8C2.12658 8 2.49967 8.3731 2.49967 8.83333V11.3333C2.49967 11.7936 2.12658 12.1667 1.66634 12.1667C1.2061 12.1667 0.833008 11.7936 0.833008 11.3333V8.83333C0.833008 8.3731 1.2061 8 1.66634 8Z" fill="#505050"/>
<path fill-rule="evenodd" clip-rule="evenodd" d="M5.00033 4.66666C5.46056 4.66666 5.83366 5.03975 5.83366 5.49999V14.6667C5.83366 15.1269 5.46056 15.5 5.00033 15.5C4.54009 15.5 4.16699 15.1269 4.16699 14.6667V5.49999C4.16699 5.03975 4.54009 4.66666 5.00033 4.66666Z" fill="#505050"/>
<path fill-rule="evenodd" clip-rule="evenodd" d="M8.33333 2.16666C8.79357 2.16666 9.16667 2.53975 9.16667 2.99999V18C9.16667 18.4602 8.79357 18.8333 8.33333 18.8333C7.8731 18.8333 7.5 18.4602 7.5 18V2.99999C7.5 2.53975 7.8731 2.16666 8.33333 2.16666Z" fill="#505050"/>
<path fill-rule="evenodd" clip-rule="evenodd" d="M11.6663 6.33334C12.1266 6.33334 12.4997 6.70644 12.4997 7.16668V13C12.4997 13.4602 12.1266 13.8333 11.6663 13.8333C11.2061 13.8333 10.833 13.4602 10.833 13V7.16668C10.833 6.70644 11.2061 6.33334 11.6663 6.33334Z" fill="#505050"/>
<path fill-rule="evenodd" clip-rule="evenodd" d="M15.0003 3.83334C15.4606 3.83334 15.8337 4.20644 15.8337 4.66668V15.5C15.8337 15.9602 15.4606 16.3333 15.0003 16.3333C14.5401 16.3333 14.167 15.9602 14.167 15.5V4.66668C14.167 4.20644 14.5401 3.83334 15.0003 3.83334Z" fill="#505050"/>
<path fill-rule="evenodd" clip-rule="evenodd" d="M18.3333 8C18.7936 8 19.1667 8.3731 19.1667 8.83333V11.3333C19.1667 11.7936 18.7936 12.1667 18.3333 12.1667C17.8731 12.1667 17.5 11.7936 17.5 11.3333V8.83333C17.5 8.3731 17.8731 8 18.3333 8Z" fill="#505050"/>
</svg>
