<svg width="17" height="17" viewBox="0 0 17 17" fill="none" xmlns="http://www.w3.org/2000/svg">
<g clip-path="url(#clip0_1016_3797)">
<path fill-rule="evenodd" clip-rule="evenodd" d="M7.85877 0.924153C8.04351 0.784015 8.26902 0.70816 8.5009 0.70816C8.73278 0.70816 8.95829 0.784015 9.14303 0.924153C9.32777 1.06429 9.4616 1.26101 9.52409 1.48432C9.5254 1.48901 9.52667 1.49372 9.52789 1.49845L10.6477 5.8439C10.6477 5.84396 10.6477 5.84401 10.6478 5.84407C10.6794 5.96657 10.7433 6.07836 10.8327 6.16782C10.9222 6.25729 11.034 6.32115 11.1565 6.35279C11.1565 6.3528 11.1566 6.35282 11.1567 6.35283L15.5021 7.47266C15.506 7.47366 15.5098 7.47469 15.5137 7.47575C15.7379 7.53759 15.9356 7.67127 16.0765 7.85629C16.2174 8.04131 16.2937 8.26745 16.2937 8.5C16.2937 8.73256 16.2174 8.9587 16.0765 9.14371C15.9356 9.32873 15.7379 9.46242 15.5137 9.52425C15.5098 9.52532 15.506 9.52635 15.5021 9.52734L11.1567 10.6472C11.1566 10.6472 11.1565 10.6472 11.1565 10.6472C11.034 10.6789 10.9222 10.7427 10.8327 10.8322C10.7432 10.9217 10.6793 11.0335 10.6477 11.1561L9.52715 15.5017C9.52629 15.505 9.5254 15.5084 9.52449 15.5117C9.52412 15.513 9.52375 15.5144 9.52338 15.5157C9.46089 15.739 9.32706 15.9357 9.14232 16.0759C8.95759 16.216 8.73207 16.2918 8.50019 16.2918C8.26831 16.2918 8.0428 16.216 7.85806 16.0759C7.67332 15.9357 7.5395 15.739 7.47701 15.5157C7.47569 15.511 7.47442 15.5063 7.47321 15.5016L6.35338 11.1561C6.35336 11.1561 6.35335 11.156 6.35333 11.1559C6.3217 11.0334 6.25783 10.9216 6.16837 10.8322C6.07886 10.7427 5.96701 10.6788 5.84444 10.6472L1.49889 9.52661C1.49336 9.52518 1.48784 9.52369 1.48235 9.52213C1.25993 9.459 1.06417 9.32504 0.924772 9.14057C0.785379 8.95611 0.709961 8.73121 0.709961 8.5C0.709961 8.2688 0.785379 8.0439 0.924772 7.85943C1.06417 7.67497 1.25993 7.54101 1.48235 7.47788C1.48781 7.47633 1.49329 7.47484 1.49878 7.47343L5.84441 6.35213L6.02131 7.03773L5.84454 6.3521C5.96706 6.32051 6.07889 6.25668 6.16839 6.16724C6.25789 6.0778 6.3218 5.96602 6.35348 5.84352L7.47394 1.49834C7.47515 1.49365 7.47641 1.48898 7.47771 1.48432C7.5402 1.26102 7.67403 1.06429 7.85877 0.924153ZM6.19822 7.72391L3.19084 8.49989L6.19825 9.2754L6.19832 9.27542C6.56602 9.37028 6.90159 9.56193 7.1701 9.83045C7.43862 10.099 7.63027 10.4345 7.72513 10.8022L8.5003 13.8102L9.27594 10.8023L9.27596 10.8022C9.37082 10.4345 9.56248 10.099 9.83099 9.83045C10.0995 9.56193 10.4351 9.37028 10.8028 9.27542L13.8117 8.5L10.8028 7.72459C10.4351 7.62973 10.0995 7.43807 9.83099 7.16956C9.56248 6.90104 9.37082 6.56548 9.27596 6.19778L9.27592 6.1976L8.50079 3.18977L7.72504 6.19816C7.63001 6.56566 7.43828 6.901 7.16977 7.16932C6.90127 7.43764 6.56579 7.62914 6.19822 7.72391Z" fill="#06CB3F"/>
</g>
<defs>
<clipPath id="clip0_1016_3797">
<rect width="17" height="17" fill="white"/>
</clipPath>
</defs>
</svg>
